# xmcd
#
# Track frame offsets: 
#        150
#        13960
#        27902
#        42126
#        55815
#        70202
#        85722
#        99790
#        113908
#        128502
#        142493
#        156936
#        170857
#        185553
#        199025
#        212280
#        225739
#        238726
#        252377
#        265787
#        278478
#        291197
#        304265
#        317349
#
# Disc length: 4392 seconds
#
# Revision: 0
# Processed by: cddbd v1.5.2PL0 Copyright (c) Steve Scherf et al.
# Submitted via: ExactAudioCopy v0.95b3
#
DISCID=55112618
DTITLE=Fiddlin' John Carson - Complete Recorded Works Vol IV
DYEAR=1926
DGENRE=folk
TTITLE0=Everybody Works But Father
TTITLE1=Fire in the Mountain
TTITLE2=Peter Went Fishing
TTITLE3=When We Meet on That Beautiful Shore
TTITLE4=One Way To Tipperary
TTITLE5=Be Kind to a Man When He's Down
TTITLE6=In My Old Cabin Home
TTITLE7=Old and in the Way
TTITLE8=It's A Shame to Whip Your Wife On Sunday
TTITLE9=Cotton Eyed Joe
TTITLE10=Jesse James
TTITLE11=Don't Let Your Deal Go Down
TTITLE12=Swanee River
TTITLE13=Old Joe Clark
TTITLE14=Gonna Swing On The Golden Gate
TTITLE15=Did He Every Return?
TTITLE16=If You Can't Get The Stopper Out Break Off The Neck
TTITLE17=Engineer On The Mogull
TTITLE18=Hell Bound For Alabama
TTITLE19=Turkey In The Hay
TTITLE20=The Smoke Goes Out The Chimney Just The Same
TTITLE21=Going Down To Cripple Creek
TTITLE22=Quit That Ticklin' Me
TTITLE23=It Won't Happen Again For A Hundred Years Or More
EXTD=
EXTT0=
EXTT1=
EXTT2=
EXTT3=
EXTT4=
EXTT5=
EXTT6=
EXTT7=
EXTT8=
EXTT9=
EXTT10=
EXTT11=
EXTT12=
EXTT13=
EXTT14=
EXTT15=
EXTT16=
EXTT17=
EXTT18=
EXTT19=
EXTT20=
EXTT21=
EXTT22=
EXTT23=
PLAYORDER=
